<svg width="24" height="24" viewBox="0 0 24 24" fill="none" xmlns="http://www.w3.org/2000/svg">
<path fill-rule="evenodd" clip-rule="evenodd" d="M12 0C8.74101 0 8.33235 0.0138139 7.05242 0.0722134C5.77516 0.13047 4.90284 0.333344 4.13955 0.630009C3.35044 0.936631 2.68123 1.34695 2.01407 2.01407C1.34695 2.68123 0.93663 3.35044 0.630009 4.13955C0.333344 4.90284 0.13047 5.77517 0.0722134 7.05242C0.0138139 8.33236 0 8.74101 0 12.0001C0 15.259 0.0138139 15.6677 0.0722134 16.9477C0.13047 18.2249 0.333344 19.0972 0.630009 19.8605C0.93663 20.6496 1.34695 21.3188 2.01407 21.986C2.68123 22.6531 3.35044 23.0634 4.13955 23.3701C4.90284 23.6667 5.77516 23.8696 7.05242 23.9279C8.33235 23.9862 8.74101 24 12 24C15.259 24 15.6677 23.9862 16.9476 23.9279C18.2249 23.8696 19.0971 23.6667 19.8605 23.3701C20.6495 23.0634 21.3188 22.6531 21.986 21.986C22.6531 21.3188 23.0634 20.6496 23.3701 19.8605C23.6667 19.0972 23.8696 18.2249 23.9278 16.9477C23.9862 15.6677 24 15.259 24 12.0001C24 8.74101 23.9862 8.33236 23.9278 7.05242C23.8696 5.77517 23.6667 4.90284 23.3701 4.13955C23.0634 3.35044 22.6531 2.68123 21.986 2.01407C21.3188 1.34695 20.6495 0.936631 19.8605 0.630009C19.0971 0.333344 18.2249 0.13047 16.9476 0.0722134C15.6677 0.0138139 15.259 0 12 0ZM8.00001 12.0001C8.00001 14.2092 9.79086 16.0001 12 16.0001C14.2092 16.0001 16.0001 14.2092 16.0001 12.0001C16.0001 9.79086 14.2092 8.00002 12 8.00002C9.79086 8.00002 8.00001 9.79086 8.00001 12.0001ZM5.83785 12.0001C5.83785 8.59672 8.59672 5.83785 12 5.83785C15.4033 5.83785 18.1622 8.59672 18.1622 12.0001C18.1622 15.4033 15.4033 18.1621 12 18.1621C8.59672 18.1621 5.83785 15.4033 5.83785 12.0001ZM18.4056 7.03438C19.201 7.03438 19.8457 6.38969 19.8457 5.59439C19.8457 4.79909 19.201 4.15437 18.4056 4.15437C17.6104 4.15437 16.9657 4.79909 16.9657 5.59439C16.9657 6.38969 17.6104 7.03438 18.4056 7.03438Z" fill="white"/>
</svg>
